M48
; DRILL file {KiCad 9.0.2} date 2025-06-14T04:37:53-0700
; FORMAT={-:-/ absolute / metric / decimal}
; #@! TF.CreationDate,2025-06-14T04:37:53-07:00
; #@! TF.GenerationSoftware,Kicad,Pcbnew,9.0.2
; #@! TF.FileFunction,Plated,1,4,PTH
FMAT,2
METRIC
; #@! TA.AperFunction,Plated,PTH,ViaDrill
T1C0.400
%
G90
G05
T1
X123.051Y-111.32
X124.423Y-89.82
X124.423Y-90.82
X124.423Y-92.32
X124.423Y-93.32
X125.026Y-116.145
X125.026Y-119.495
X125.173Y-104.32
X125.423Y-97.245
X125.423Y-98.745
X125.423Y-100.245
X125.423Y-101.745
X125.423Y-103.245
X125.551Y-106.82
X125.551Y-108.82
X125.551Y-111.32
X126.173Y-104.32
X126.423Y-105.245
X126.551Y-117.82
X127.051Y-97.32
X127.423Y-89.82
X127.423Y-90.82
X127.423Y-92.32
X127.423Y-93.32
X127.923Y-105.245
X128.076Y-116.145
X128.076Y-119.495
X128.551Y-97.32
X129.148Y-95.32
X129.173Y-98.32
X129.201Y-108.97
X129.423Y-90.82
X129.673Y-103.32
X130.051Y-97.32
X130.673Y-99.82
X130.898Y-88.845
X131.051Y-108.82
X131.173Y-103.32
X131.551Y-97.32
X131.923Y-119.745
X132.051Y-98.32
X132.148Y-96.32
X132.423Y-90.82
X133.173Y-94.32
X133.673Y-97.32
X134.098Y-99.245
X134.423Y-104.995
X134.923Y-106.995
X134.923Y-111.495
X134.923Y-112.745
X134.923Y-114.245
X134.923Y-116.495
X135.173Y-98.82
X135.923Y-89.82
X135.923Y-110.995
X135.923Y-112.745
X136.448Y-114.245
X137.423Y-89.745
X138.286Y-100.358
X138.923Y-114.245
X139.173Y-107.245
X139.923Y-92.245
X139.923Y-112.495
X140.051Y-94.32
X140.223Y-91.045
X141.923Y-113.245
X141.923Y-117.745
X142.423Y-107.495
X142.923Y-112.745
X143.423Y-117.745
X144.173Y-110.745
X144.19Y-112.866
X144.197Y-114.91
X144.363Y-91.83
X144.423Y-116.91
X144.443Y-109.725
X144.923Y-117.745
X144.943Y-91.015
X145.051Y-95.82
X145.423Y-116.745
X145.494Y-111.813
X145.923Y-103.245
X145.923Y-109.245
X146.197Y-115.91
X146.423Y-117.745
X146.697Y-111.41
X146.923Y-97.995
X146.923Y-98.995
X147.197Y-114.41
X147.197Y-115.41
X147.923Y-117.745
X148.423Y-114.745
X148.423Y-116.245
X148.923Y-103.745
X149.051Y-107.32
X149.423Y-98.495
X149.923Y-105.245
X151.051Y-100.32
X151.051Y-108.32
X152.923Y-101.245
X153.051Y-99.32
X153.051Y-109.32
X153.073Y-107.095
X154.903Y-92.765
X154.923Y-89.245
X154.923Y-91.245
X154.923Y-93.745
X155.051Y-99.32
X155.051Y-106.32
X155.051Y-107.32
X155.051Y-109.32
X157.051Y-89.32
X157.051Y-94.32
X157.051Y-99.32
X157.051Y-109.32
X158.051Y-101.32
X159.051Y-89.32
X159.051Y-94.32
X159.051Y-99.32
X159.051Y-109.32
X160.551Y-89.32
X160.551Y-94.32
X161.051Y-99.32
X161.051Y-109.32
M30
